HIERARCHY
ROOT Hips
{
	OFFSET -3.958830 18.904000 13.208200
	CHANNELS 6 Xposition Yposition Zposition Zrotation Yrotation Xrotation 
	JOINT LHipJoint
	{
		OFFSET 0.000000 0.000000 0.000000
		CHANNELS 3 Zrotation Yrotation Xrotation
		JOINT LeftUpLeg
		{
			OFFSET 1.800000 -1.400000 0.085000
			CHANNELS 3 Zrotation Yrotation Xrotation
			JOINT LeftLeg
			{
				OFFSET 2.215000 -6.000000 0.000000
				CHANNELS 3 Zrotation Yrotation Xrotation
				JOINT LeftFoot
				{
					OFFSET 2.500000 -6.900000 0.000000
					CHANNELS 3 Zrotation Yrotation Xrotation
					JOINT LeftToeBase
					{
						OFFSET 0.200000 -0.500000 1.950000
						CHANNELS 3 Zrotation Yrotation Xrotation
						End Site
						{
							OFFSET 0.000000 0.000000 0.000000
						}
					}
				}
			}
		}
	}
	JOINT RHipJoint
	{
		OFFSET 0.000000 0.000000 0.000000
		CHANNELS 3 Zrotation Yrotation Xrotation
		JOINT RightUpLeg
		{
			OFFSET -1.800000 -1.400000 0.085000
			CHANNELS 3 Zrotation Yrotation Xrotation
			JOINT RightLeg
			{
				OFFSET -2.215000 -6.000000 0.000000
				CHANNELS 3 Zrotation Yrotation Xrotation
				JOINT RightFoot
				{
					OFFSET -2.500000 -6.900000 0.000000
					CHANNELS 3 Zrotation Yrotation Xrotation
					JOINT RightToeBase
					{
						OFFSET -0.200000 -0.500000 1.950000
						CHANNELS 3 Zrotation Yrotation Xrotation
						End Site
						{
							OFFSET 0.000000 0.000000 0.000000
						}
					}
				}
			}
		}
	}
	JOINT LowerBack
	{
		OFFSET 0.000000 0.000000 0.000000
		CHANNELS 3 Zrotation Yrotation Xrotation
		JOINT Spine
		{
			OFFSET -0.087000 1.940000 -0.288900
			CHANNELS 3 Zrotation Yrotation Xrotation
			JOINT Spine1
			{
				OFFSET 0.000000 1.950000 0.060000
				CHANNELS 3 Zrotation Yrotation Xrotation
				JOINT Neck
				{
					OFFSET 0.000000 0.000000 0.000000
					CHANNELS 3 Zrotation Yrotation Xrotation
					JOINT Neck1
					{
						OFFSET 0.000000 1.600000 0.340000
						CHANNELS 3 Zrotation Yrotation Xrotation
						JOINT Head
						{
							OFFSET 0.000000 1.667000 -0.240000
							CHANNELS 3 Zrotation Yrotation Xrotation
							End Site
							{
								OFFSET 0.000000 0.000000 0.000000
							}
						}
					}
				}
				JOINT LeftShoulder
				{
					OFFSET 0.000000 0.000000 0.000000
					CHANNELS 3 Zrotation Yrotation Xrotation
					JOINT LeftArm
					{
						OFFSET 2.700000 1.550000 -0.730000
						CHANNELS 3 Zrotation Yrotation Xrotation
						JOINT LeftForeArm
						{
							OFFSET 5.450000 0.000000 0.000000
							CHANNELS 3 Zrotation Yrotation Xrotation
							JOINT LeftHand
							{
								OFFSET 3.450000 0.000000 0.000000
								CHANNELS 3 Zrotation Yrotation Xrotation
								JOINT LeftHandIndex1
								{
									OFFSET 0.750000 0.000000 0.000000
									CHANNELS 3 Zrotation Yrotation Xrotation
									End Site
									{
										OFFSET 0.000000 0.000000 0.000000
									}
								}
							}
						}
					}
				}
				JOINT RightShoulder
				{
					OFFSET 0.000000 0.000000 0.000000
					CHANNELS 3 Zrotation Yrotation Xrotation
					JOINT RightArm
					{
						OFFSET -2.700000 1.550000 -0.730000
						CHANNELS 3 Zrotation Yrotation Xrotation
						JOINT RightForeArm
						{
							OFFSET -5.450000 0.000000 0.000000
							CHANNELS 3 Zrotation Yrotation Xrotation
							JOINT RightHand
							{
								OFFSET -3.450000 0.000000 0.000000
								CHANNELS 3 Zrotation Yrotation Xrotation
								JOINT RightHandIndex1
								{
									OFFSET -0.750000 0.000000 0.000000
									CHANNELS 3 Zrotation Yrotation Xrotation
									End Site
									{
										OFFSET 0.000000 0.000000 0.000000
									}
								}
							}
						}
					}
				}
			}
		}
	}
}
MOTION
Frames: 4
Frame Time: 0.016667
-11.116710 16.163220 0.215780 -5.925480 -18.719492 -4.424234 -15.860939 12.593258 5.819797 27.242593 0.052872 -32.995197 -17.336227 6.276835 4.489730 -0.059513 5.552200 2.109459 0.276460 0.320560 0.415070 17.751725 -9.095210 1.808983 -13.062768 4.392964 -14.158045 11.562675 -8.089640 25.396468 -0.555360 -4.320371 2.439678 0.014800 -0.200020 0.207030 -1.802893 -5.012920 -8.945050 2.673767 2.477894 38.787200 2.650610 4.186615 17.013124 4.933808 -1.869796 -18.104840 -11.790319 17.518922 58.265469 -6.157800 18.194840 -11.081100 -15.907171 -27.393890 9.748605 -41.879305 -12.465359 -3.042850 18.188552 -9.005009 -2.885548 -3.547253 3.116465 0.526040 -0.177740 0.420560 -0.125460 5.900545 31.278585 13.379230 34.538397 4.280044 -11.569312 -25.286739 18.650222 -5.596566 2.434347 -1.378151 0.044620 0.023910 0.051720 -0.144270 
-10.946220 16.229680 0.276060 -5.502709 -18.930186 -3.949236 -15.902553 12.685912 5.838460 27.633507 -0.184459 -30.579377 -21.421290 7.627541 6.806479 0.032553 6.311492 1.873411 0.123820 0.121110 0.334470 17.695713 -9.098324 1.694551 -14.289326 3.377562 -12.666091 10.737551 -7.089244 20.813948 -0.408762 -3.833539 2.665957 -0.082330 -0.129210 0.168190 -1.661836 -5.174461 -8.930902 2.474536 2.748467 38.224769 2.691718 4.191610 16.151525 5.642149 -1.813868 -18.027342 -11.162672 17.486840 57.806191 -7.360680 19.158820 -8.891650 -14.983800 -25.725713 10.146297 -41.650916 -9.525095 -3.902050 17.041436 -12.016908 -3.198896 -3.570566 3.014200 0.533560 -0.131220 0.339360 -0.167740 3.734085 29.931588 13.264913 36.737017 3.970951 -11.340788 -24.557265 18.378696 -5.203198 2.427499 -1.299857 -0.039360 0.051170 0.139970 -0.174370 
-10.760570 16.296710 0.335730 -5.352757 -18.842459 -3.691551 -15.909940 12.854584 5.704730 27.023355 -0.466413 -28.096254 -23.768133 8.547455 8.365747 0.128939 6.731546 1.755379 0.060390 0.013050 0.318050 17.651549 -9.091373 1.687354 -15.135152 2.466505 -10.844310 9.977381 -6.197372 16.035566 -0.360719 -3.485607 2.817703 -0.154230 -0.107840 0.191030 -1.580565 -5.402100 -8.896990 2.868282 2.519653 38.515254 2.424426 4.042665 14.860735 6.415059 -2.016023 -17.546787 -11.215397 17.632976 56.726755 -9.205660 19.949100 -8.491150 -14.012459 -23.203096 10.035838 -41.174408 -7.153456 -4.788855 14.919533 -15.596990 -3.456902 -3.565748 2.968110 0.548320 -0.112910 0.324060 -0.183570 1.335647 27.749834 12.628413 38.766288 4.302847 -11.239832 -23.777416 18.841543 -4.961345 2.435174 -1.257853 -0.054030 0.033370 0.173620 -0.187290 
-10.564820 16.352350 0.395460 -5.387755 -18.554277 -3.024650 -15.872471 13.019006 5.483977 25.554404 -0.812301 -26.196563 -24.481891 8.830815 8.887671 0.184715 6.781468 1.774442 -0.017920 -0.096010 0.263160 17.634358 -9.083163 1.819672 -15.636164 1.846978 -9.571800 9.204540 -5.344131 11.162687 -0.330352 -3.246709 2.938581 -0.227540 -0.061840 0.209070 -1.599247 -5.558347 -8.882440 3.975686 2.062796 38.671856 1.868223 4.135009 12.729313 6.990043 -2.191877 -17.072792 -11.235717 17.721616 55.253093 -9.581360 20.371670 -7.628650 -13.835546 -20.361363 9.464356 -39.561084 -5.051037 -5.257685 11.440325 -18.396832 -3.230882 -3.592149 2.931640 0.546370 -0.089340 0.294870 -0.194560 0.174131 25.085057 12.033496 39.643491 3.528414 -10.929448 -21.818724 19.557650 -4.351279 2.446235 -1.193477 -0.065850 0.022210 0.221210 -0.181520 
